<svg id="visual" viewBox="0 0 900 900" width="900" height="900" xmlns="http://www.w3.org/2000/svg" xmlns:xlink="http://www.w3.org/1999/xlink" version="1.1"><rect x="0" y="0" width="900" height="900" fill="#000000"></rect><defs><linearGradient id="grad1_0" x1="0%" y1="0%" x2="100%" y2="100%"><stop offset="30%" stop-color="#000000" stop-opacity="1"></stop><stop offset="70%" stop-color="#000000" stop-opacity="1"></stop></linearGradient></defs><defs><linearGradient id="grad2_0" x1="0%" y1="0%" x2="100%" y2="100%"><stop offset="30%" stop-color="#000000" stop-opacity="1"></stop><stop offset="70%" stop-color="#000000" stop-opacity="1"></stop></linearGradient></defs><g transform="translate(900, 0)"><path d="M0 572.8C-63.9 541.2 -127.7 509.6 -202.1 487.8C-276.4 466 -361.1 454.1 -405 405C-448.9 355.9 -451.9 269.6 -473 195.9C-494.2 122.2 -533.5 61.1 -572.8 0L0 0Z" fill="#ffffff"></path></g><g transform="translate(0, 900)"><path d="M0 -572.8C84.9 -574.1 169.9 -575.4 219.2 -529.2C268.5 -482.9 282.2 -389.1 335.2 -335.2C388.2 -281.3 480.5 -267.3 526.6 -218.1C572.8 -168.9 572.8 -84.5 572.8 0L0 0Z" fill="#ffffff"></path></g></svg>