<svg id="visual" viewBox="0 0 960 540" width="960" height="540" xmlns="http://www.w3.org/2000/svg" xmlns:xlink="http://www.w3.org/1999/xlink" version="1.1"><rect x="0" y="0" width="960" height="540" fill="#000000"></rect><defs><linearGradient id="grad1_0" x1="43.8%" y1="0%" x2="100%" y2="100%"><stop offset="14.444444444444446%" stop-color="#000000" stop-opacity="1"></stop><stop offset="85.55555555555554%" stop-color="#000000" stop-opacity="1"></stop></linearGradient></defs><defs><linearGradient id="grad2_0" x1="0%" y1="0%" x2="56.3%" y2="100%"><stop offset="14.444444444444446%" stop-color="#000000" stop-opacity="1"></stop><stop offset="85.55555555555554%" stop-color="#000000" stop-opacity="1"></stop></linearGradient></defs><g transform="translate(960, 0)"><path d="M0 486C-57.3 490.8 -114.6 495.6 -150.2 462.2C-185.8 428.8 -199.6 357.1 -231 317.9C-262.4 278.8 -311.2 272.2 -337.4 245.1C-363.5 218 -367 170.4 -388 126.1C-409 81.8 -447.5 40.9 -486 0L0 0Z" fill="#ffffff"></path></g><g transform="translate(0, 540)"><path d="M0 -486C34 -431.1 68 -376.3 120.2 -370C172.4 -363.7 242.9 -405.9 285.7 -393.2C328.4 -380.4 343.5 -312.7 360 -261.6C376.5 -210.4 394.4 -175.9 415.6 -135C436.8 -94.2 461.4 -47.1 486 0L0 0Z" fill="#ffffff"></path></g></svg>