<svg id="visual" viewBox="0 0 960 540" width="960" height="540" xmlns="http://www.w3.org/2000/svg" xmlns:xlink="http://www.w3.org/1999/xlink" version="1.1"><rect x="0" y="0" width="960" height="540" fill="#000000"></rect><defs><linearGradient id="grad1_0" x1="43.8%" y1="0%" x2="100%" y2="100%"><stop offset="14.444444444444446%" stop-color="#000000" stop-opacity="1"></stop><stop offset="85.55555555555554%" stop-color="#000000" stop-opacity="1"></stop></linearGradient></defs><defs><linearGradient id="grad2_0" x1="0%" y1="0%" x2="56.3%" y2="100%"><stop offset="14.444444444444446%" stop-color="#000000" stop-opacity="1"></stop><stop offset="85.55555555555554%" stop-color="#000000" stop-opacity="1"></stop></linearGradient></defs><g transform="translate(960, 0)"><path d="M0 486C-51.2 476.2 -102.5 466.4 -144.6 445.1C-186.8 423.8 -219.9 391.1 -266.3 366.5C-312.6 341.9 -372.3 325.4 -393.2 285.7C-414.1 246 -396.1 183.1 -405.2 131.6C-414.2 80.2 -450.1 40.1 -486 0L0 0Z" fill="#ffffff"></path></g><g transform="translate(0, 540)"><path d="M0 -486C53.5 -485.9 107 -485.8 150.2 -462.2C193.4 -438.7 226.4 -391.7 254.5 -350.3C282.6 -309 305.9 -273.3 327.7 -238.1C349.4 -202.9 369.5 -168.1 395.6 -128.6C421.8 -89 453.9 -44.5 486 0L0 0Z" fill="#ffffff"></path></g></svg>