<svg id="visual" viewBox="0 0 900 900" width="900" height="900" xmlns="http://www.w3.org/2000/svg" xmlns:xlink="http://www.w3.org/1999/xlink" version="1.1"><rect x="0" y="0" width="900" height="900" fill="#000000"></rect><defs><linearGradient id="grad1_0" x1="0%" y1="0%" x2="100%" y2="100%"><stop offset="30%" stop-color="#000000" stop-opacity="1"></stop><stop offset="70%" stop-color="#000000" stop-opacity="1"></stop></linearGradient></defs><defs><linearGradient id="grad2_0" x1="0%" y1="0%" x2="100%" y2="100%"><stop offset="30%" stop-color="#000000" stop-opacity="1"></stop><stop offset="70%" stop-color="#000000" stop-opacity="1"></stop></linearGradient></defs><g transform="translate(900, 0)"><path d="M0 489C-43.5 472.3 -87.1 455.7 -148.6 457.5C-210.2 459.2 -289.7 479.4 -325 447.4C-360.4 415.3 -351.4 331 -387.5 281.5C-423.6 232.1 -504.7 217.6 -543.1 176.4C-581.4 135.3 -577.1 67.7 -572.8 0L0 0Z" fill="#ffffff"></path></g><g transform="translate(0, 900)"><path d="M0 -467C66.8 -515.3 133.6 -563.6 177 -544.7C220.4 -525.8 240.5 -439.7 289.8 -398.8C339.1 -358 417.6 -362.4 450.6 -327.4C483.6 -292.4 471 -217.8 482.2 -156.7C493.3 -95.5 528.2 -47.8 563 0L0 0Z" fill="#ffffff"></path></g></svg>