<?xml version="1.0" encoding="utf-8" ?>
<svg xmlns="http://www.w3.org/2000/svg" xmlns:xlink="http://www.w3.org/1999/xlink" width="44" height="44">
	<path fill="gray" transform="translate(0 11)" d="M22.215771 21.127434Q21.769733 21.127434 21.48595 20.842419Q21.202168 20.557404 21.202168 20.103844L21.202168 6.2637177L21.31319 2.9673996L21.905788 3.2603912L18.536839 6.982254L15.717816 9.777153Q15.580983 9.9086685 15.397328 9.9888229Q15.213674 10.068977 14.995908 10.068977Q14.581777 10.068977 14.302079 9.7874641Q14.022382 9.5059509 14.022382 9.0758667Q14.022382 8.6683502 14.336904 8.347084L21.459232 1.2217712Q21.614872 1.0645752 21.811043 0.97955704Q22.007214 0.89453888 22.215771 0.89453888Q22.422901 0.89453888 22.619072 0.97955704Q22.815243 1.0645752 22.972439 1.2217712L30.096325 8.347084Q30.40929 8.6683502 30.40929 9.0758667Q30.40929 9.5059509 30.130371 9.7874641Q29.851452 10.068977 29.437191 10.068977Q29.219425 10.068977 29.034992 9.9888229Q28.850559 9.9086685 28.713856 9.777153L25.893276 6.982254L22.517582 3.2603912L23.116924 2.9673996L23.229504 6.2637177L23.229504 20.103844Q23.229504 20.557404 22.944942 20.842419Q22.660381 21.127434 22.215771 21.127434Z"/>
	<path fill="white" fill-opacity="0.40000001" transform="translate(0 11)" d="M22.215771 21.127434Q21.769733 21.127434 21.48595 20.842419Q21.202168 20.557404 21.202168 20.103844L21.202168 6.2637177L21.31319 2.9673996L21.905788 3.2603912L18.536839 6.982254L15.717816 9.777153Q15.580983 9.9086685 15.397328 9.9888229Q15.213674 10.068977 14.995908 10.068977Q14.581777 10.068977 14.302079 9.7874641Q14.022382 9.5059509 14.022382 9.0758667Q14.022382 8.6683502 14.336904 8.347084L21.459232 1.2217712Q21.614872 1.0645752 21.811043 0.97955704Q22.007214 0.89453888 22.215771 0.89453888Q22.422901 0.89453888 22.619072 0.97955704Q22.815243 1.0645752 22.972439 1.2217712L30.096325 8.347084Q30.40929 8.6683502 30.40929 9.0758667Q30.40929 9.5059509 30.130371 9.7874641Q29.851452 10.068977 29.437191 10.068977Q29.219425 10.068977 29.034992 9.9888229Q28.850559 9.9086685 28.713856 9.777153L25.893276 6.982254L22.517582 3.2603912L23.116924 2.9673996L23.229504 6.2637177L23.229504 20.103844Q23.229504 20.557404 22.944942 20.842419Q22.660381 21.127434 22.215771 21.127434Z"/>
</svg>
